<?xml version="1.0" encoding="utf-8"?>
<!-- Generator: Adobe Illustrator 22.0.0, SVG Export Plug-In . SVG Version: 6.00 Build 0)  -->
<svg version="1.0" id="Calque_1" xmlns="http://www.w3.org/2000/svg" xmlns:xlink="http://www.w3.org/1999/xlink" x="0px" y="0px"
	 viewBox="0 0 380 190" style="enable-background:new 0 0 380 190;" xml:space="preserve">
<style type="text/css">
	.st0{fill:none;stroke:#231F20;stroke-width:1.8255;stroke-miterlimit:10;stroke-dasharray:1.8255;}
	.st1{clip-path:url(#SVGID_2_);}
	.st2{fill:#D1D3D4;}
	.st3{fill:#F1F2F2;stroke:#231F20;stroke-width:1.8255;stroke-linejoin:round;stroke-miterlimit:10;}
	.st4{fill:none;stroke:#231F20;stroke-width:1.8255;stroke-linejoin:round;stroke-miterlimit:10;}
	.st5{fill:#FFFFFF;stroke:#231F20;stroke-width:1.8255;stroke-linejoin:round;stroke-miterlimit:10;}
	.st6{clip-path:url(#SVGID_4_);}
	.st7{fill:none;stroke:#231F20;stroke-width:0.6846;stroke-linejoin:round;stroke-miterlimit:10;}
	.st8{fill:none;stroke:#231F20;stroke-width:3.8428;stroke-linejoin:round;stroke-miterlimit:10;}
	.st9{fill:none;stroke:#231F20;stroke-width:2.7383;stroke-linejoin:round;stroke-miterlimit:10;}
	.st10{fill:none;stroke:#231F20;stroke-width:1.8255;stroke-miterlimit:10;}
	.st11{fill:#006CB8;}
	.st12{fill:#FFDE00;}
	.st13{opacity:0.3;fill:none;stroke:#231F20;stroke-width:2.7383;stroke-linejoin:round;stroke-miterlimit:10;}
	.st14{fill:#B8D888;}
	.st15{fill:none;stroke:#231F20;stroke-width:2.2819;stroke-linejoin:round;stroke-miterlimit:10;}
	.st16{opacity:0.2;fill:#231F20;}
	.st17{fill:#A7A9AC;stroke:#231F20;stroke-width:1.8255;stroke-linejoin:round;stroke-miterlimit:10;}
	.st18{fill:#A7A9AC;stroke:#231F20;stroke-width:1.3692;stroke-linejoin:round;stroke-miterlimit:10;}
	.st19{fill:#D1D3D4;stroke:#231F20;stroke-width:1.8255;stroke-linejoin:round;stroke-miterlimit:10;}
	.st20{fill:#FFFFFF;stroke:#231F20;stroke-width:2.7383;stroke-miterlimit:10;}
	.st21{fill:none;stroke:#231F20;stroke-width:1.8255;stroke-linecap:round;stroke-miterlimit:10;}
	.st22{fill:#FB5F62;}
	.st23{fill:none;stroke:#FFFFFF;stroke-width:2.7383;stroke-linejoin:round;stroke-miterlimit:10;}
	.st24{fill:none;stroke:#FFFFFF;stroke-width:1.8255;stroke-linejoin:round;stroke-miterlimit:10;}
	.st25{fill:#A7A9AC;}
	.st26{fill:#B8D888;stroke:#231F20;stroke-width:3.8428;stroke-linejoin:round;stroke-miterlimit:10;}
	.st27{fill:#F59331;stroke:#231F20;stroke-width:2.7383;stroke-linejoin:round;stroke-miterlimit:10;}
	.st28{fill:#FFFFFF;stroke:#231F20;stroke-width:2.7383;stroke-linejoin:round;stroke-miterlimit:10;}
	.st29{clip-path:url(#SVGID_6_);fill:#8BC4EB;}
	.st30{clip-path:url(#SVGID_6_);}
	.st31{fill:none;stroke:#231F20;stroke-width:2.7383;stroke-miterlimit:10;}
	.st32{fill:#60BB46;stroke:#FFFFFF;stroke-width:1.3692;stroke-miterlimit:10;}
	.st33{fill:#D91965;stroke:#FFFFFF;stroke-width:1.3692;stroke-miterlimit:10;}
	.st34{fill:#FFDE00;stroke:#FFFFFF;stroke-width:1.3692;stroke-miterlimit:10;}
	.st35{fill:#006CB8;stroke:#FFFFFF;stroke-width:1.3692;stroke-miterlimit:10;}
	.st36{fill:#8BC4EB;}
	.st37{opacity:0.3;fill:#231F20;}
	.st38{fill:#FFFFFF;stroke:#231F20;stroke-width:1.3692;stroke-linejoin:round;stroke-miterlimit:10;}
	.st39{fill:#231F20;stroke:#FFFFFF;stroke-width:0.9128;stroke-miterlimit:10;}
	.st40{fill:#D1D3D4;stroke:#231F20;stroke-width:2.7383;stroke-miterlimit:10;}
	.st41{fill:#FEDC38;}
	.st42{fill:none;stroke:#231F20;stroke-width:3.6511;stroke-linejoin:round;stroke-dasharray:0.4476,0.4476;}
	.st43{fill:#FFFFFF;}
	.st44{fill:none;stroke:#231F20;stroke-width:3.6511;stroke-linejoin:round;stroke-dasharray:0.4632,0.4632;}
	.st45{fill:#A7A9AC;stroke:#231F20;stroke-width:2.7383;stroke-linejoin:round;stroke-miterlimit:10;}
	.st46{fill:#D1D3D4;stroke:#231F20;stroke-width:2.7383;stroke-linejoin:round;stroke-miterlimit:10;}
	.st47{fill:#231F20;}
	.st48{opacity:0.4;fill:#FFFFFF;stroke:#231F20;stroke-width:1.3692;stroke-linejoin:round;stroke-miterlimit:10;}
	.st49{fill:#359970;stroke:#231F20;stroke-width:1.8255;stroke-miterlimit:10;}
	.st50{fill:none;stroke:#FFFFFF;stroke-width:0.9128;stroke-linejoin:round;stroke-miterlimit:10;}
	.st51{fill:#D1D3D4;stroke:#231F20;stroke-width:2.2819;stroke-linejoin:round;stroke-miterlimit:10;}
	.st52{fill:#A7A9AC;stroke:#231F20;stroke-width:2.2819;stroke-linejoin:round;stroke-miterlimit:10;}
	.st53{fill:none;stroke:#231F20;stroke-width:1.3692;stroke-linejoin:round;stroke-miterlimit:10;}
	.st54{fill:none;stroke:#EF5C46;stroke-width:0.9128;stroke-linejoin:round;stroke-miterlimit:10;}
</style>
<g>
	<path class="st0" d="M104.2,77.1H79.1c-3.7,0-6.7-3-6.7-6.7v-5.9"/>
	<g>
		<defs>
			<polygon id="SVGID_1_" points="274.9,53.9 217.2,53.9 179.3,54.3 179.3,88.7 217.2,88.7 217.2,121.1 274.9,121.1 			"/>
		</defs>
		<clipPath id="SVGID_2_">
			<use xlink:href="#SVGID_1_"  style="overflow:visible;"/>
		</clipPath>
		<g class="st1">
			<path class="st2" d="M255.2,72.8c-0.4,0.4-1,0.6-1.6,0.6c-1.4,0-2.6-1.1-2.6-2.6c0-0.5,0.2-1,0.4-1.4c-6.7-5.3-15.1-8.4-24.3-8.4
				c-21.7,0-39.3,17.6-39.3,39.3c0,21.7,17.6,39.3,39.3,39.3s39.3-17.6,39.3-39.3C266.4,89.6,262.1,79.9,255.2,72.8z"/>
			<g>
				<circle class="st3" cx="227.1" cy="100.3" r="31.3"/>
				<line class="st4" x1="227.1" y1="100.3" x2="227.1" y2="69.1"/>
				<line class="st4" x1="227.1" y1="100.3" x2="211.5" y2="73.3"/>
				<line class="st4" x1="227.1" y1="100.3" x2="200" y2="84.7"/>
				<line class="st4" x1="227.1" y1="100.3" x2="195.8" y2="100.3"/>
				<line class="st4" x1="227.1" y1="100.3" x2="200" y2="116"/>
				<line class="st4" x1="227.1" y1="100.3" x2="211.5" y2="127.4"/>
				<line class="st4" x1="227.1" y1="100.3" x2="227.1" y2="131.6"/>
				<line class="st4" x1="227.1" y1="100.3" x2="242.7" y2="127.4"/>
				<line class="st4" x1="227.1" y1="100.3" x2="254.2" y2="116"/>
				<line class="st4" x1="227.1" y1="100.3" x2="258.3" y2="100.3"/>
				<line class="st4" x1="227.1" y1="100.3" x2="254.2" y2="84.7"/>
				<line class="st4" x1="227.1" y1="100.3" x2="242.7" y2="73.3"/>
			</g>
			
				<ellipse transform="matrix(0.9732 -0.2298 0.2298 0.9732 -16.9744 54.8572)" class="st5" cx="227.1" cy="100.3" rx="16.1" ry="16.1"/>
			<g>
				<g>
					<defs>
						
							<ellipse id="SVGID_3_" transform="matrix(0.9732 -0.2298 0.2298 0.9732 -16.9744 54.8572)" cx="227.1" cy="100.3" rx="16.1" ry="16.1"/>
					</defs>
					<clipPath id="SVGID_4_">
						<use xlink:href="#SVGID_3_"  style="overflow:visible;"/>
					</clipPath>
					<g class="st6">
						<g>
							
								<rect x="221.4" y="70.9" transform="matrix(0.7071 0.7071 -0.7071 0.7071 120.5043 -138.0795)" class="st7" width="11.1" height="11.1"/>
							<line class="st7" x1="226.9" y1="68.6" x2="226.9" y2="84.3"/>
							
								<rect x="229.2" y="78.7" transform="matrix(-0.7071 -0.7071 0.7071 -0.7071 341.2162 309.9058)" class="st7" width="11.1" height="11.1"/>
							<line class="st7" x1="242.7" y1="84.3" x2="226.9" y2="84.3"/>
							<g>
								
									<rect x="237.3" y="86.8" transform="matrix(0.7071 0.7071 -0.7071 0.7071 136.3967 -144.6623)" class="st7" width="11.1" height="11.1"/>
								<line class="st7" x1="242.8" y1="84.5" x2="242.8" y2="100.2"/>
								
									<rect x="245.1" y="94.6" transform="matrix(-0.7071 -0.7071 0.7071 -0.7071 357.1085 348.2733)" class="st7" width="11.1" height="11.1"/>
								<line class="st7" x1="258.5" y1="100.2" x2="242.8" y2="100.2"/>
							</g>
						</g>
						<g>
							
								<rect x="213.5" y="78.7" transform="matrix(0.7071 0.7071 -0.7071 0.7071 123.7612 -130.2167)" class="st7" width="11.1" height="11.1"/>
							<line class="st7" x1="211.2" y1="84.3" x2="226.9" y2="84.3"/>
							
								<rect x="221.4" y="86.6" transform="matrix(-0.7071 -0.7071 0.7071 -0.7071 322.2337 317.7686)" class="st7" width="11.1" height="11.1"/>
							<line class="st7" x1="226.9" y1="100" x2="226.9" y2="84.3"/>
							<g>
								
									<rect x="229.4" y="94.6" transform="matrix(0.7071 0.7071 -0.7071 0.7071 139.6536 -136.7995)" class="st7" width="11.1" height="11.1"/>
								<line class="st7" x1="227.1" y1="100.2" x2="242.8" y2="100.2"/>
								
									<rect x="237.3" y="102.5" transform="matrix(-0.7071 -0.7071 0.7071 -0.7071 338.126 356.136)" class="st7" width="11.1" height="11.1"/>
								<line class="st7" x1="242.8" y1="115.9" x2="242.8" y2="100.2"/>
							</g>
						</g>
						<g>
							
								<rect x="197.8" y="94.5" transform="matrix(0.7071 0.7071 -0.7071 0.7071 130.2747 -114.4909)" class="st7" width="11.1" height="11.1"/>
							<line class="st7" x1="195.5" y1="100" x2="211.2" y2="100"/>
							
								<rect x="205.6" y="102.3" transform="matrix(-0.7071 -0.7071 0.7071 -0.7071 284.2683 333.4943)" class="st7" width="11.1" height="11.1"/>
							<line class="st7" x1="211.2" y1="115.7" x2="211.2" y2="100"/>
							<g>
								
									<rect x="213.7" y="110.3" transform="matrix(0.7071 0.7071 -0.7071 0.7071 146.1673 -121.0739)" class="st7" width="11.1" height="11.1"/>
								<line class="st7" x1="211.4" y1="115.9" x2="227.1" y2="115.9"/>
								
									<rect x="221.5" y="118.2" transform="matrix(-0.7071 -0.7071 0.7071 -0.7071 300.161 371.8617)" class="st7" width="11.1" height="11.1"/>
								<line class="st7" x1="227.1" y1="131.6" x2="227.1" y2="115.9"/>
							</g>
						</g>
						<g>
							
								<rect x="205.6" y="86.6" transform="matrix(0.7071 0.7071 -0.7071 0.7071 127.0178 -122.3537)" class="st7" width="11.1" height="11.1"/>
							<line class="st7" x1="211.2" y1="84.3" x2="211.2" y2="100"/>
							
								<rect x="213.5" y="94.5" transform="matrix(-0.7071 -0.7071 0.7071 -0.7071 303.2508 325.6315)" class="st7" width="11.1" height="11.1"/>
							<line class="st7" x1="226.9" y1="100" x2="211.2" y2="100"/>
							<g>
								
									<rect x="221.5" y="102.5" transform="matrix(0.7071 0.7071 -0.7071 0.7071 142.9104 -128.9367)" class="st7" width="11.1" height="11.1"/>
								<line class="st7" x1="227.1" y1="100.2" x2="227.1" y2="115.9"/>
								
									<rect x="229.4" y="110.3" transform="matrix(-0.7071 -0.7071 0.7071 -0.7071 319.1435 363.9989)" class="st7" width="11.1" height="11.1"/>
								<line class="st7" x1="242.8" y1="115.9" x2="227.1" y2="115.9"/>
							</g>
						</g>
					</g>
				</g>
				
					<ellipse transform="matrix(0.9732 -0.2298 0.2298 0.9732 -16.9744 54.8572)" class="st4" cx="227.1" cy="100.3" rx="16.1" ry="16.1"/>
			</g>
		</g>
	</g>
	<path class="st8" d="M259.6,121.1c4-6.1,6.3-13.4,6.3-21.3c0-10.8-4.4-20.5-11.4-27.6"/>
	<g>
		<line class="st9" x1="319.9" y1="85.5" x2="319.9" y2="81.1"/>
		<circle class="st10" cx="319.9" cy="78.5" r="2.6"/>
		<polygon class="st11" points="339.1,99.7 300.7,99.7 319.9,85.5 		"/>
		<rect x="304.3" y="99.7" class="st11" width="31.3" height="19.9"/>
		<rect x="318" y="99.7" class="st12" width="3.9" height="19.9"/>
		<polygon class="st12" points="319.9,85.5 319.9,85.5 317.1,99.7 322.8,99.7 		"/>
		<polygon class="st12" points="321,85.5 319.9,85.5 328.7,99.7 332.6,99.7 		"/>
		<polygon class="st12" points="318.8,85.5 319.9,85.5 311.2,99.7 307.3,99.7 		"/>
		<rect x="326.7" y="99.7" class="st12" width="3.9" height="19.9"/>
		
			<rect x="309.3" y="99.7" transform="matrix(-1 -1.224647e-16 1.224647e-16 -1 622.4398 219.3193)" class="st12" width="3.9" height="19.9"/>
		<rect x="304.3" y="99.7" class="st9" width="31.3" height="19.9"/>
		<line class="st13" x1="304.3" y1="102.4" x2="335.6" y2="102.4"/>
		<polygon class="st9" points="339.1,99.7 300.7,99.7 319.9,85.5 		"/>
	</g>
	<path class="st14" d="M331.5,139c0-23.4-18.3-42.6-41.4-43.9c0,1.4-1.2,2.5-2.5,2.5c-1.4,0-2.5-1.1-2.5-2.5l-0.2,0
		c-16.6,1-30.7,11.2-37.3,25.6h40V139H331.5z"/>
	<g>
		<polygon class="st15" points="146.7,87.1 146.7,97.2 134.6,97.4 134.6,79.5 126.7,79.5 126.7,73.7 140.4,70.3 140.4,87.1 		"/>
		<polygon class="st16" points="146.7,87.1 146.7,97.2 134.6,97.4 134.6,79.5 126.7,79.5 126.7,73.7 140.4,70.3 140.4,87.1 		"/>
		<polyline class="st9" points="146.7,97.2 134.6,97.2 134.6,79.5 119.9,79.5 119.9,66.9 104.2,66.9 104.2,89.3 94.7,89.3 		"/>
		<circle class="st10" cx="92.1" cy="89.3" r="2.6"/>
		<line class="st10" x1="112.4" y1="66.9" x2="112.4" y2="56.9"/>
		<circle class="st10" cx="112.4" cy="54.3" r="2.6"/>
		<g>
			<line class="st10" x1="119.3" y1="84.2" x2="130.3" y2="84.2"/>
			<line class="st10" x1="119.3" y1="93.1" x2="130.3" y2="93.1"/>
			<line class="st10" x1="119.3" y1="88.7" x2="130.3" y2="88.7"/>
			<line class="st10" x1="119.3" y1="97.5" x2="130.3" y2="97.5"/>
		</g>
	</g>
	<path class="st8" d="M251.4,69.5c-6.7-5.4-15.2-8.6-24.5-8.6c-17.6,0-32.5,11.7-37.3,27.7"/>
	<g>
		<path class="st17" d="M72.6,47.9l-8.2,2.2c-0.8,0.2-1.2,1-1,1.8l0.9,3.5c0.2,0.8,1,1.2,1.8,1l8.2-2.2c0.8-0.2,1.2-1,1-1.8
			l-0.9-3.5C74.1,48.1,73.4,47.7,72.6,47.9z"/>
		<line class="st10" x1="62.7" y1="60.3" x2="64.9" y2="68.6"/>
		<path class="st18" d="M66.6,68.1c-0.2-0.9-1.2-1.5-2.1-1.2c-0.9,0.2-1.5,1.2-1.2,2.1c0.2,0.9,1.2,1.5,2.1,1.2
			C66.3,70,66.8,69,66.6,68.1z"/>
		<line class="st10" x1="79.2" y1="55.9" x2="81.4" y2="64.1"/>
		<path class="st18" d="M79.8,64.6c-0.2-0.9,0.3-1.9,1.2-2.1c0.9-0.2,1.9,0.3,2.1,1.2c0.2,0.9-0.3,1.9-1.2,2.1
			C80.9,66.1,80,65.5,79.8,64.6z"/>
		<path class="st10" d="M66.7,61.6l-7.2,1.9c-1.8,0.5-3.7-0.6-4.2-2.4l-1.9-7.2"/>
		<path class="st10" d="M76.4,59l7.2-1.9c1.8-0.5,2.9-2.4,2.4-4.2l-1.9-7.2"/>
		<path class="st19" d="M81.8,57.5L61.2,63l-0.9-3.4c-0.7-2.7,0.9-5.4,3.5-6.1l11-2.9c2.7-0.7,5.4,0.9,6.1,3.5L81.8,57.5z"/>
		
			<ellipse transform="matrix(0.4591 -0.8884 0.8884 0.4591 -14.8708 96.1589)" class="st20" cx="71.5" cy="60.3" rx="3.9" ry="3.9"/>
		<line class="st21" x1="79.7" y1="48.5" x2="89.3" y2="45.9"/>
		<line class="st21" x1="58.6" y1="54.2" x2="49" y2="56.8"/>
	</g>
	<g>
		<line class="st9" x1="287.5" y1="92.5" x2="287.5" y2="78.9"/>
		<line class="st9" x1="280.7" y1="85" x2="294.4" y2="85"/>
	</g>
	<path class="st22" d="M84.4,108.2H65.8v33.3c-4.5,2.2-9.6,3.5-15,3.5c-18.6,0-33.7-15.1-33.7-33.7c0-18.6,15.1-33.7,33.7-33.7
		C68.4,77.5,82.9,91,84.4,108.2z"/>
	<g>
		<path class="st23" d="M78.8,108.2c-1.5-14.1-13.5-25-27.9-25c-15.5,0-28.1,12.6-28.1,28.1s12.6,28.1,28.1,28.1
			c5.7,0,11-1.7,15.4-4.6"/>
		<line class="st24" x1="50.9" y1="83.2" x2="50.9" y2="139"/>
		<line class="st24" x1="57.9" y1="83.2" x2="57.9" y2="139"/>
		<line class="st24" x1="64.9" y1="87" x2="64.9" y2="135.7"/>
		<line class="st24" x1="71.9" y1="92.7" x2="71.9" y2="108.1"/>
		<line class="st24" x1="43.8" y1="83.2" x2="43.8" y2="139"/>
		<line class="st24" x1="36.8" y1="87" x2="36.8" y2="135.7"/>
		<line class="st24" x1="29.8" y1="92.7" x2="29.8" y2="129.9"/>
		<line class="st24" x1="64.7" y1="118.1" x2="22.6" y2="118.1"/>
		<line class="st24" x1="58" y1="111.1" x2="22.7" y2="111.1"/>
		<line class="st24" x1="43.8" y1="97" x2="26.7" y2="97"/>
		<line class="st24" x1="50.9" y1="104.1" x2="23.7" y2="104.1"/>
		<line class="st24" x1="58" y1="125.1" x2="26.7" y2="125.1"/>
		<line class="st24" x1="64.9" y1="132.2" x2="32" y2="132.2"/>
	</g>
	<g>
		<path class="st2" d="M206.7,88.7h-26v-9.9c10.2-11.3,19.7-26.8,20-45.2h34.9C235.7,33.5,204.7,55.9,206.7,88.7z"/>
		<path class="st25" d="M206.7,88.7h-23.4c3.4-4,7.2-8.7,11-14c0,0,0,0,0,0c7.3-10.2,14.2-22.2,16.2-33.1c0,0,0,0,0,0
			c0.5-2.8,0.7-5.5,0.5-8h24.6C235.7,33.5,204.7,55.9,206.7,88.7z"/>
		<path class="st4" d="M184.6,88.7c10.5-14.1,27.1-39.2,27.1-55.2"/>
		<path class="st8" d="M206.7,88.7h-26v-9.9c10.2-11.3,19.7-26.8,20-45.2h34.9C235.7,33.5,204.7,55.9,206.7,88.7z"/>
	</g>
	<path class="st26" d="M290.1,95.1"/>
	<path class="st8" d="M290.1,95.1c23.1,1.3,41.4,20.5,41.4,43.9h-44v-18.3h-40c6.6-14.4,20.7-24.6,37.3-25.6"/>
	<g>
		<path class="st27" d="M325,131.4h21.1c2,0,3.7,1.6,3.7,3.7l0,0c0,2-1.6,3.7-3.7,3.7H325c-2,0-3.7-1.6-3.7-3.7l0,0
			C321.3,133.1,322.9,131.4,325,131.4z"/>
		<rect x="325.9" y="125.7" class="st28" width="19.1" height="5.7"/>
		<rect x="328" y="120.1" class="st27" width="15.1" height="5.7"/>
		<rect x="330.2" y="114.4" class="st28" width="10.6" height="5.7"/>
		<rect x="332.7" y="108.7" class="st27" width="5.6" height="5.7"/>
	</g>
	<g>
		<defs>
			<path id="SVGID_5_" d="M76,159.8h-38c-14.7,0-26.7-11.9-26.7-26.7v0h50.4c10,0,18.2,8.1,18.2,18.2v3.8L76,159.8z"/>
		</defs>
		<clipPath id="SVGID_6_">
			<use xlink:href="#SVGID_5_"  style="overflow:visible;"/>
		</clipPath>
		<path class="st29" d="M80,159.8H38.1c-14.7,0-26.7-11.9-26.7-26.7v0h50.4c10,0,18.2,8.1,18.2,18.2V159.8z"/>
		<g class="st30">
			<g>
				<g>
					<path class="st24" d="M11.4,138.7c9.1,0,9.1,2.3,18.1,2.3c9.1,0,9.1-2.3,18.1-2.3c9.1,0,9.1,2.3,18.1,2.3s9.1-2.3,18.1-2.3"/>
				</g>
				<g>
					<path class="st24" d="M11.4,145.1c9.1,0,9.1,2.3,18.1,2.3c9.1,0,9.1-2.3,18.1-2.3c9.1,0,9.1,2.3,18.1,2.3s9.1-2.3,18.1-2.3"/>
				</g>
				<g>
					<path class="st24" d="M11.4,151.6c9.1,0,9.1,2.3,18.1,2.3c9.1,0,9.1-2.3,18.1-2.3c9.1,0,9.1,2.3,18.1,2.3s9.1-2.3,18.1-2.3"/>
				</g>
			</g>
		</g>
	</g>
	<path class="st8" d="M61.9,133.1c10,0,18.2,8.1,18.2,18.2v4.6"/>
	<path class="st9" d="M11.4,133.1"/>
	<polyline class="st8" points="287.5,146.9 287.5,121.1 216.7,121.1 216.7,88.7 180.8,88.7 180.8,65 146.7,65 146.7,108.2 
		65.8,108.2 65.8,133.1 53.4,133.1 	"/>
	<circle class="st31" cx="287.5" cy="150.8" r="3.9"/>
	<line class="st8" x1="287.5" y1="139" x2="372.2" y2="139"/>
	<ellipse transform="matrix(0.9732 -0.2298 0.2298 0.9732 -21.8991 89.8534)" class="st20" cx="374.9" cy="139" rx="3.9" ry="3.9"/>
	<line class="st8" x1="65.8" y1="133.1" x2="9.1" y2="133.1"/>
	<circle class="st20" cx="5.2" cy="133.1" r="3.9"/>
	<ellipse transform="matrix(0.1222 -0.9925 0.9925 0.1222 -88.435 219.6683)" class="st31" cx="80" cy="159.8" rx="3.9" ry="3.9"/>
	<g>
		<g>
			<rect x="99" y="119" class="st32" width="10.1" height="10"/>
			<rect x="109.1" y="119" class="st33" width="10.1" height="10"/>
			<rect x="119.3" y="119" class="st34" width="10.1" height="10"/>
			<rect x="129.4" y="119" class="st32" width="10.1" height="10"/>
			<rect x="139.5" y="119" class="st34" width="10.1" height="10"/>
			<rect x="149.6" y="119" class="st32" width="10.1" height="10"/>
			<rect x="99" y="119" class="st32" width="10.1" height="20"/>
			<rect x="109.1" y="129.1" class="st35" width="10.1" height="10"/>
			<rect x="119.3" y="129.1" class="st32" width="10.1" height="10"/>
			<rect x="129.4" y="129.1" class="st33" width="10.1" height="10"/>
			<rect x="139.5" y="119" class="st34" width="10.1" height="20"/>
			<rect x="149.6" y="119" class="st32" width="10.1" height="20"/>
			<polygon class="st34" points="109.1,149.1 103.5,149.1 99,144.1 99,139.1 109.1,139.1 			"/>
			<rect x="109.1" y="129.2" class="st35" width="10.1" height="19.8"/>
			<rect x="119.3" y="139.1" class="st34" width="10.1" height="10"/>
			<rect x="129.4" y="129.1" class="st33" width="10.1" height="20"/>
			<rect x="139.5" y="139.1" class="st35" width="10.1" height="10"/>
			<rect x="149.6" y="139.1" class="st33" width="10.1" height="10"/>
			<rect x="159.7" y="139.1" class="st34" width="10.1" height="10"/>
			<rect x="169.9" y="139.1" class="st33" width="10.1" height="10"/>
			<rect x="180" y="139.1" class="st35" width="10.1" height="10"/>
			<rect x="190.1" y="139.1" class="st34" width="10.1" height="10"/>
			<rect x="200.2" y="139.1" class="st32" width="10.1" height="10"/>
			<rect x="210.3" y="139.1" class="st33" width="10.1" height="10"/>
			<path class="st35" d="M169.9,159.2h-0.1c-5.5,0-10-4.5-10-10l0,0h10.1V159.2z"/>
			<rect x="169.9" y="139" class="st33" width="10.1" height="20.2"/>
			<rect x="180" y="149.2" class="st32" width="10.1" height="10"/>
			<rect x="190.1" y="139" class="st34" width="10.1" height="20.2"/>
			<rect x="200.2" y="149.2" class="st35" width="10.1" height="10"/>
			<polygon class="st34" points="216.5,159.2 210.3,159.2 210.3,149.2 220.5,149.2 220.5,154.2 			"/>
		</g>
		<polyline class="st8" points="220.5,155.1 220.5,139.1 159.7,139.1 159.7,118.7 99,118.7 99,145.2 		"/>
		<circle class="st31" cx="220.5" cy="159.7" r="3.9"/>
		<circle class="st31" cx="99" cy="149.1" r="3.9"/>
	</g>
	<polygon class="st36" points="163.7,36 158.8,36 146.7,52 146.7,58.9 163.7,58.9 	"/>
	<polygon class="st26" points="163.7,36 168.7,36 180.8,52 180.8,58.9 163.7,58.9 	"/>
	<polygon class="st8" points="163.7,36 158.8,36 146.7,52 146.7,58.9 163.7,58.9 	"/>
	<polygon class="st8" points="163.7,36 168.7,36 180.8,52 180.8,58.9 163.7,58.9 	"/>
	<rect x="162.1" y="73.7" class="st4" width="3.2" height="38.7"/>
	<rect x="170" y="73.7" class="st4" width="3.3" height="45"/>
	
		<rect x="154.3" y="73.7" transform="matrix(-1 -1.224647e-16 1.224647e-16 -1 311.8015 181.6463)" class="st4" width="3.2" height="34.3"/>
	<ellipse class="st37" cx="254.1" cy="154.7" rx="26.6" ry="3.4"/>
	<polygon class="st37" points="218.4,88.7 218.4,121.1 228.9,121.1 	"/>
	<polygon class="st37" points="289.1,119.6 289.1,137.4 295,137.4 	"/>
	<g>
		<g>
			<line class="st9" x1="260.4" y1="131.9" x2="271.4" y2="131.9"/>
			<circle class="st17" cx="260.4" cy="131.9" r="3"/>
			<path class="st19" d="M255.9,127.3h4.5v9.2h-12.7v-1C247.7,131,251.4,127.3,255.9,127.3z"/>
			<line class="st9" x1="271.4" y1="131.9" x2="271.4" y2="120.7"/>
			<circle class="st38" cx="271.4" cy="131.9" r="1.8"/>
			<path class="st19" d="M267,124.3h9v-7.2h-9c-2,0-3.6,1.6-3.6,3.6l0,0C263.4,122.7,265,124.3,267,124.3z"/>
			<path class="st17" d="M272.3,117.1h7.3c2,0,3.6,1.6,3.6,3.6l0,0c0,2-1.6,3.6-3.6,3.6h-7.3c-2,0-3.6-1.6-3.6-3.6l0,0
				C268.7,118.7,270.3,117.1,272.3,117.1z"/>
			<path class="st39" d="M272,120.7c0-0.6,0.5-1.2,1.2-1.2c0.6,0,1.2,0.5,1.2,1.2c0,0.6-0.5,1.2-1.2,1.2
				C272.6,121.8,272,121.3,272,120.7z"/>
			<path class="st39" d="M279.9,120.7c0-0.6-0.5-1.2-1.2-1.2c-0.6,0-1.2,0.5-1.2,1.2c0,0.6,0.5,1.2,1.2,1.2
				C279.3,121.8,279.9,121.3,279.9,120.7z"/>
		</g>
		<g>
			<path class="st17" d="M245.8,136.4h16.6c1.6,0,3,1.3,3,3l0,0c0,1.6-1.3,3-3,3h-16.6c-1.6,0-3-1.3-3-3l0,0
				C242.8,137.8,244.1,136.4,245.8,136.4z"/>
			<path class="st40" d="M240.9,141.7h26.3c3.6,0,6.5,2.9,6.5,6.5v0c0,3.6-2.9,6.5-6.5,6.5h-26.3c-3.6,0-6.5-2.9-6.5-6.5v0
				C234.4,144.6,237.3,141.7,240.9,141.7z"/>
			<g>
				
					<ellipse transform="matrix(0.9239 -0.3827 0.3827 0.9239 -37.3685 108.5116)" class="st41" cx="254.1" cy="148.2" rx="3.1" ry="3.1"/>
				
					<ellipse transform="matrix(0.9239 -0.3827 0.3827 0.9239 -37.3685 108.5116)" class="st9" cx="254.1" cy="148.2" rx="3.1" ry="3.1"/>
				<circle class="st42" cx="254.1" cy="148.2" r="3.1"/>
				
					<ellipse transform="matrix(0.9239 -0.3827 0.3827 0.9239 -37.3685 108.5116)" class="st43" cx="254.1" cy="148.2" rx="3.1" ry="3.1"/>
			</g>
			<g>
				<circle class="st41" cx="241" cy="148.2" r="1.8"/>
				<circle class="st9" cx="241" cy="148.2" r="1.8"/>
				<circle class="st44" cx="241" cy="148.2" r="1.8"/>
				<circle class="st43" cx="241" cy="148.2" r="1.8"/>
			</g>
			<g>
				
					<ellipse transform="matrix(0.9732 -0.2298 0.2298 0.9732 -26.9009 65.3348)" class="st41" cx="267.1" cy="148.2" rx="1.8" ry="1.8"/>
				
					<ellipse transform="matrix(0.9732 -0.2298 0.2298 0.9732 -26.9009 65.3348)" class="st31" cx="267.1" cy="148.2" rx="1.8" ry="1.8"/>
				<path class="st44" d="M268.9,148.2c0-1-0.8-1.8-1.8-1.8c-1,0-1.8,0.8-1.8,1.8c0,1,0.8,1.8,1.8,1.8
					C268.1,150,268.9,149.2,268.9,148.2z"/>
				
					<ellipse transform="matrix(0.9732 -0.2298 0.2298 0.9732 -26.9009 65.3348)" class="st43" cx="267.1" cy="148.2" rx="1.8" ry="1.8"/>
			</g>
			<path class="st39" d="M252.6,148.2c0-0.8,0.7-1.5,1.5-1.5c0.8,0,1.5,0.7,1.5,1.5c0,0.8-0.7,1.5-1.5,1.5
				C253.2,149.7,252.6,149,252.6,148.2z"/>
			<path class="st39" d="M265.6,148.2c0-0.8,0.7-1.5,1.5-1.5c0.8,0,1.5,0.7,1.5,1.5c0,0.8-0.7,1.5-1.5,1.5
				C266.3,149.7,265.6,149,265.6,148.2z"/>
			<path class="st39" d="M239.5,148.2c0-0.8,0.7-1.5,1.5-1.5c0.8,0,1.5,0.7,1.5,1.5c0,0.8-0.7,1.5-1.5,1.5
				C240.2,149.7,239.5,149,239.5,148.2z"/>
		</g>
	</g>
	<polygon class="st37" points="161.6,118.7 161.6,137.6 166.4,137.6 	"/>
	<polygon class="st37" points="182.6,88.7 182.6,125.4 187.4,125.4 	"/>
	<g>
		<path class="st45" d="M49.7,150.5H13.4c-1.4,0-2.5,1.1-2.5,2.5v3.7c0,1.4,1.1,2.5,2.5,2.5h36.3c1.4,0,2.5-1.1,2.5-2.5v-3.7
			C52.1,151.6,51,150.5,49.7,150.5z"/>
		<path class="st46" d="M55.9,150.5H19.7c-1.4,0-2.5,1.1-2.5,2.5v3.7c0,1.4,1.1,2.5,2.5,2.5h36.3c1.4,0,2.5-1.1,2.5-2.5v-3.7
			C58.4,151.6,57.3,150.5,55.9,150.5z"/>
		<g>
			<g>
				<polygon class="st47" points="23.4,155.1 22.8,142 25.6,142 25,155.1 				"/>
			</g>
			<g>
				<polygon class="st47" points="37.1,154.4 43.2,142.7 45.6,144.1 38.5,155.1 				"/>
			</g>
			<g>
				<polygon class="st47" points="51,154 62.1,146.9 63.4,149.3 51.8,155.3 				"/>
			</g>
			<circle class="st48" cx="24.2" cy="155.1" r="1.6"/>
			<circle class="st48" cx="37.8" cy="155.1" r="1.6"/>
			<circle class="st48" cx="51.4" cy="155.1" r="1.6"/>
			<circle class="st38" cx="24.2" cy="154.7" r="1.6"/>
			<circle class="st38" cx="37.8" cy="154.7" r="1.6"/>
			<circle class="st38" cx="51.4" cy="154.7" r="1.6"/>
		</g>
	</g>
	<g>
		<line class="st8" x1="361" y1="126.6" x2="361" y2="139"/>
		<g>
			<path class="st49" d="M367.7,128.4h-13.3c-2.5,0-4.5-2-4.5-4.5v-16.5c0-2.5,2-4.5,4.5-4.5h13.3c2.5,0,4.5,2,4.5,4.5v16.5
				C372.2,126.4,370.2,128.4,367.7,128.4z"/>
			<g>
				<g>
					<path class="st43" d="M362.6,116.6c-0.6-0.9-0.9-2-1.7-2.8c-0.1,0.1-0.3,0.3-0.4,0.4c-0.5,0.4-1,0.8-1.5,1.3
						c-0.1,0.1-0.1,0.2-0.1,0.3c0.1,0.4,0.2,0.7,0.3,1.2c-0.5-0.1-0.5-0.7-0.9-0.9c-0.1,0.1-0.3,0.2-0.5,0.3c0,0-0.1,0-0.2,0
						c0-0.1,0-0.1,0-0.2c0.1-0.2,0.2-0.3,0.4-0.5c-0.3-0.3-0.8-0.4-1-0.8c0,0,0-0.1,0.1-0.1c0.4,0.1,0.7,0.2,1.1,0.3
						c0.1,0,0.2,0,0.2,0c0.6-0.6,1.1-1.2,1.6-1.8c0,0,0-0.1,0.1-0.1c-0.8-0.8-1.9-1.1-2.8-1.6c0.1-0.2,0.2-0.3,0.5-0.2
						c1,0.2,2,0.5,3.1,0.7c0.2,0.1,0.4,0,0.6-0.2c0.6-0.5,1.2-1,1.8-1.5c0.1-0.1,0.3-0.2,0.4-0.2c0.1,0,0.2,0,0.3,0
						c0.1,0.1,0.1,0.2,0,0.3c-0.2,0.3-0.4,0.6-0.6,0.9c-0.4,0.4-0.8,0.8-1.2,1.2c-0.2,0.2-0.2,0.4-0.2,0.6c0.3,1,0.5,2.1,0.8,3.1
						C362.9,116.3,362.9,116.5,362.6,116.6z"/>
				</g>
			</g>
			<rect x="354.7" y="107" class="st50" width="12.4" height="12.4"/>
			<g>
				<path class="st43" d="M357.3,125.1v-1.2l-1.2-2.3h1l0.7,1.5h0l0.7-1.5h1l-1.2,2.3v1.2H357.3z"/>
				<path class="st43" d="M360.7,123.8c0,0.4,0.2,0.7,0.6,0.7c0.4,0,0.6-0.2,0.6-0.7v-2.2h0.9v2.3c0,0.8-0.6,1.3-1.5,1.3
					c-0.9,0-1.5-0.5-1.5-1.3v-2.3h0.9V123.8z"/>
				<path class="st43" d="M365.9,125.1h-2.4v-3.6h0.9v2.8h1.5V125.1z"/>
			</g>
		</g>
	</g>
	<circle class="st10" cx="287.5" cy="95" r="2.6"/>
	<polyline class="st8" points="180.8,88.7 180.8,127.3 200.9,127.3 	"/>
	<circle class="st10" cx="203.4" cy="127.3" r="2.6"/>
	<g>
		<polygon class="st51" points="77.3,103 77.3,113.5 85.2,108.2 		"/>
		
			<rect x="85.2" y="103" transform="matrix(-1 -1.224647e-16 1.224647e-16 -1 175.6521 216.4221)" class="st52" width="5.3" height="10.5"/>
	</g>
	<g>
		<rect x="194" y="111.2" class="st53" width="9.6" height="3.1"/>
		<rect x="198.9" y="108.1" class="st53" width="9.6" height="3.1"/>
	</g>
	<path class="st51" d="M146.7,87.1"/>
	<circle class="st10" cx="253.5" cy="70.8" r="2.6"/>
	<g>
		<line class="st9" x1="274.9" y1="67.5" x2="281" y2="61.4"/>
		<line class="st9" x1="281.1" y1="57.5" x2="271.8" y2="48.3"/>
		<circle class="st53" cx="283.1" cy="59.5" r="2.8"/>
		<line class="st9" x1="271.2" y1="67.7" x2="265.9" y2="62.4"/>
		<circle class="st53" cx="273" cy="69.5" r="2.8"/>
		<line class="st9" x1="262" y1="62.3" x2="255.7" y2="68.6"/>
		
			<ellipse transform="matrix(0.1602 -0.9871 0.9871 0.1602 161.9965 311.2416)" class="st53" cx="263.9" cy="60.4" rx="2.8" ry="2.8"/>
		<path class="st19" d="M278.5,50H270c-1.9,0-3.4-1.5-3.4-3.4l0,0c0-1.9,1.5-3.4,3.4-3.4h8.5V50z"/>
		<line class="st54" x1="281.1" y1="50" x2="281.1" y2="43.2"/>
		<line class="st54" x1="283.1" y1="48.1" x2="283.1" y2="45.1"/>
		<line class="st54" x1="285.1" y1="47.4" x2="285.1" y2="45.8"/>
		<rect x="274.7" y="43.2" class="st17" width="3.8" height="6.7"/>
	</g>
</g>
</svg>
