<?xml version="1.0" encoding="utf-8"?>
<!-- Generator: Adobe Illustrator 22.0.0, SVG Export Plug-In . SVG Version: 6.00 Build 0)  -->
<svg version="1.0" id="Calque_1" xmlns="http://www.w3.org/2000/svg" xmlns:xlink="http://www.w3.org/1999/xlink" x="0px" y="0px"
	 viewBox="0 0 350 111" style="enable-background:new 0 0 350 111;" xml:space="preserve">
<style type="text/css">
	.st0{fill:#231F20;}
</style>
<g>
	<g>
		<path class="st0" d="M7.2,78.2V59.9h1.7v18.3H7.2z"/>
		<path class="st0" d="M13.4,64.5H15V67h0.2c0.7-1.7,2.2-2.7,4.4-2.7c3.1,0,4.8,1.8,4.8,5v8.9h-1.7v-8.5c0-2.6-1.2-3.9-3.6-3.9
			c-2.4,0-4.1,1.7-4.1,4.3v8.1h-1.7V64.5z"/>
		<path class="st0" d="M31.1,60.9v3.6h3.2v1.4h-3.2v8.5c0,1.7,0.6,2.4,2.2,2.4c0.3,0,0.7,0,1,0v1.4c-0.3,0.1-0.9,0.1-1.2,0.1
			c-2.6,0-3.7-1-3.7-3.5v-8.9h-2.2v-1.4h2.2v-3.6H31.1z"/>
		<path class="st0" d="M48.7,74.8C48,77,45.9,78.4,43,78.4c-3.8,0-6.1-2.7-6.1-7.1c0-4.3,2.4-7.1,6.1-7.1c3.6,0,5.9,2.6,5.9,6.8v0.7
			H38.6v0.1c0.1,3.1,1.8,5.1,4.4,5.1c1.9,0,3.3-0.8,3.9-2.1H48.7z M38.6,70.4h8.5c0-2.8-1.7-4.7-4.2-4.7
			C40.5,65.8,38.8,67.6,38.6,70.4z"/>
		<path class="st0" d="M52.5,64.5h1.6v2.3h0.2c0.5-1.5,2-2.5,3.8-2.5c0.5,0,0.9,0,1.3,0.1v1.7c-0.3-0.1-1-0.2-1.5-0.2
			c-2.1,0-3.7,1.6-3.7,3.8v8.5h-1.7V64.5z"/>
		<path class="st0" d="M62.4,64.5H64V67h0.2c0.7-1.7,2.2-2.7,4.4-2.7c3.1,0,4.8,1.8,4.8,5v8.9h-1.7v-8.5c0-2.6-1.2-3.9-3.6-3.9
			c-2.4,0-4.1,1.7-4.1,4.3v8.1h-1.7V64.5z"/>
		<path class="st0" d="M76.7,74.4c0-2.4,1.8-3.8,4.9-4l4.3-0.3v-1.3c0-2-1.2-3-3.4-3c-1.9,0-3.2,0.8-3.6,2.1h-1.7
			c0.3-2.2,2.4-3.6,5.3-3.6c3.2,0,5,1.7,5,4.5v9.4H86v-2.4h-0.2c-0.8,1.6-2.5,2.6-4.5,2.6C78.6,78.4,76.7,76.9,76.7,74.4z
			 M85.9,73.1v-1.6l-4.1,0.3c-2.3,0.2-3.4,1-3.4,2.6c0,1.6,1.3,2.6,3.2,2.6C84.1,77,85.9,75.3,85.9,73.1z"/>
		<path class="st0" d="M94.4,60.9v3.6h3.2v1.4h-3.2v8.5c0,1.7,0.6,2.4,2.2,2.4c0.3,0,0.7,0,1,0v1.4c-0.3,0.1-0.9,0.1-1.2,0.1
			c-2.6,0-3.7-1-3.7-3.5v-8.9h-2.2v-1.4h2.2v-3.6H94.4z"/>
		<path class="st0" d="M100.7,60.2c0-0.7,0.6-1.2,1.2-1.2c0.7,0,1.2,0.6,1.2,1.2c0,0.7-0.6,1.2-1.2,1.2
			C101.3,61.5,100.7,60.9,100.7,60.2z M101.1,64.5h1.7v13.7h-1.7V64.5z"/>
		<path class="st0" d="M106.4,71.3c0-4.4,2.4-7.1,6.2-7.1c3.8,0,6.2,2.7,6.2,7.1c0,4.4-2.4,7.1-6.2,7.1
			C108.8,78.4,106.4,75.7,106.4,71.3z M117.2,71.3c0-3.5-1.7-5.6-4.5-5.6s-4.5,2.1-4.5,5.6c0,3.5,1.7,5.6,4.5,5.6
			S117.2,74.8,117.2,71.3z"/>
		<path class="st0" d="M122.5,64.5h1.6V67h0.2c0.7-1.7,2.2-2.7,4.4-2.7c3.1,0,4.8,1.8,4.8,5v8.9h-1.7v-8.5c0-2.6-1.2-3.9-3.6-3.9
			c-2.4,0-4.1,1.7-4.1,4.3v8.1h-1.7V64.5z"/>
		<path class="st0" d="M136.9,74.4c0-2.4,1.8-3.8,4.9-4l4.3-0.3v-1.3c0-2-1.2-3-3.4-3c-1.9,0-3.2,0.8-3.6,2.1h-1.7
			c0.3-2.2,2.4-3.6,5.3-3.6c3.2,0,5,1.7,5,4.5v9.4h-1.6v-2.4H146c-0.8,1.6-2.5,2.6-4.5,2.6C138.8,78.4,136.9,76.9,136.9,74.4z
			 M146.1,73.1v-1.6l-4.1,0.3c-2.3,0.2-3.4,1-3.4,2.6c0,1.6,1.3,2.6,3.2,2.6C144.2,77,146.1,75.3,146.1,73.1z"/>
		<path class="st0" d="M152.1,59.1h1.7v19.1h-1.7V59.1z"/>
		<path class="st0" d="M164.7,69c0-5.9,3.1-9.6,8.1-9.6c3.8,0,6.8,2.5,7.3,6h-1.8c-0.5-2.6-2.8-4.4-5.6-4.4c-3.8,0-6.3,3.1-6.3,7.9
			s2.4,7.9,6.3,7.9c2.8,0,5-1.6,5.5-4h1.8c-0.5,3.4-3.4,5.6-7.3,5.6C167.8,78.6,164.7,74.9,164.7,69z"/>
		<path class="st0" d="M183,71.3c0-4.4,2.4-7.1,6.2-7.1c3.8,0,6.2,2.7,6.2,7.1c0,4.4-2.4,7.1-6.2,7.1C185.4,78.4,183,75.7,183,71.3z
			 M193.7,71.3c0-3.5-1.7-5.6-4.5-5.6c-2.8,0-4.5,2.1-4.5,5.6c0,3.5,1.7,5.6,4.5,5.6C192.1,76.9,193.7,74.8,193.7,71.3z"/>
		<path class="st0" d="M199.1,64.5h1.6V67h0.2c0.7-1.7,2.2-2.7,4.4-2.7c3.1,0,4.8,1.8,4.8,5v8.9h-1.7v-8.5c0-2.6-1.2-3.9-3.6-3.9
			c-2.4,0-4.1,1.7-4.1,4.3v8.1h-1.7V64.5z"/>
		<path class="st0" d="M215.2,65.9h-2.3v-1.4h2.3V63c0-2.6,1.3-3.8,3.8-3.8c0.4,0,0.8,0,1.2,0.1v1.4c-0.3-0.1-0.7-0.1-1.2-0.1
			c-1.4,0-2.2,0.8-2.2,2.4v1.5h3.2v1.4h-3.2v12.3h-1.7V65.9z"/>
		<path class="st0" d="M233.8,74.8c-0.7,2.2-2.8,3.6-5.7,3.6c-3.8,0-6.1-2.7-6.1-7.1c0-4.3,2.4-7.1,6.1-7.1c3.6,0,5.9,2.6,5.9,6.8
			v0.7h-10.3v0.1c0.1,3.1,1.8,5.1,4.4,5.1c1.9,0,3.3-0.8,3.9-2.1H233.8z M223.8,70.4h8.5c0-2.8-1.7-4.7-4.2-4.7
			C225.7,65.8,223.9,67.6,223.8,70.4z"/>
		<path class="st0" d="M237.7,64.5h1.6v2.3h0.2c0.5-1.5,2-2.5,3.8-2.5c0.5,0,0.9,0,1.3,0.1v1.7c-0.3-0.1-1-0.2-1.5-0.2
			c-2.1,0-3.7,1.6-3.7,3.8v8.5h-1.7V64.5z"/>
		<path class="st0" d="M258.1,74.8c-0.7,2.2-2.8,3.6-5.7,3.6c-3.8,0-6.1-2.7-6.1-7.1c0-4.3,2.4-7.1,6.1-7.1c3.6,0,5.9,2.6,5.9,6.8
			v0.7H248v0.1c0.1,3.1,1.8,5.1,4.4,5.1c1.9,0,3.3-0.8,3.9-2.1H258.1z M248,70.4h8.5c0-2.8-1.7-4.7-4.2-4.7
			C249.9,65.8,248.2,67.6,248,70.4z"/>
		<path class="st0" d="M261.9,64.5h1.6V67h0.2c0.7-1.7,2.2-2.7,4.4-2.7c3.1,0,4.8,1.8,4.8,5v8.9h-1.7v-8.5c0-2.6-1.2-3.9-3.6-3.9
			c-2.4,0-4.1,1.7-4.1,4.3v8.1h-1.7V64.5z"/>
		<path class="st0" d="M286.5,68.5c-0.4-1.6-1.8-2.8-3.9-2.8c-2.7,0-4.4,2.1-4.4,5.5c0,3.4,1.7,5.6,4.4,5.6c2,0,3.5-1,3.9-2.7h1.7
			c-0.4,2.5-2.5,4.2-5.6,4.2c-3.8,0-6.2-2.8-6.2-7.1c0-4.3,2.4-7,6.2-7c3.1,0,5.2,1.9,5.6,4.3H286.5z"/>
		<path class="st0" d="M302.7,74.8c-0.7,2.2-2.8,3.6-5.7,3.6c-3.8,0-6.1-2.7-6.1-7.1c0-4.3,2.4-7.1,6.1-7.1c3.6,0,5.9,2.6,5.9,6.8
			v0.7h-10.3v0.1c0.1,3.1,1.8,5.1,4.4,5.1c1.9,0,3.3-0.8,3.9-2.1H302.7z M292.7,70.4h8.5c0-2.8-1.7-4.7-4.2-4.7
			C294.5,65.8,292.8,67.6,292.7,70.4z"/>
		<path class="st0" d="M312.9,71.3c0-4.4,2.4-7.1,6.2-7.1s6.2,2.7,6.2,7.1c0,4.4-2.4,7.1-6.2,7.1S312.9,75.7,312.9,71.3z
			 M323.6,71.3c0-3.5-1.7-5.6-4.5-5.6s-4.5,2.1-4.5,5.6c0,3.5,1.7,5.6,4.5,5.6S323.6,74.8,323.6,71.3z"/>
		<path class="st0" d="M328.9,64.5h1.6V67h0.2c0.7-1.7,2.2-2.7,4.4-2.7c3.1,0,4.8,1.8,4.8,5v8.9h-1.7v-8.5c0-2.6-1.2-3.9-3.6-3.9
			c-2.4,0-4.1,1.7-4.1,4.3v8.1h-1.7V64.5z"/>
	</g>
	<g>
		<path class="st0" d="M11.7,104.2H7V85.9h8.1c4.3,0,6.9,2.3,6.9,6.1c0,2.3-1.1,4.3-3.1,5.2l3.7,7.1h-5.2l-3.1-6.4h-2.4V104.2z
			 M11.7,94.5h2.8c1.7,0,2.7-1,2.7-2.5c0-1.6-1.1-2.6-2.7-2.6h-2.7V94.5z"/>
		<path class="st0" d="M24.1,97.2c0-4.6,2.8-7.4,7.2-7.4c4.5,0,7.2,2.8,7.2,7.4c0,4.7-2.7,7.4-7.2,7.4
			C26.7,104.6,24.1,101.8,24.1,97.2z M33.9,97.2c0-2.5-1-4-2.6-4s-2.6,1.5-2.6,4c0,2.5,0.9,4,2.6,4S33.9,99.7,33.9,97.2z"/>
		<path class="st0" d="M46,102h-0.2v2.2h-4.4V84.8h4.5v7.6h0.2c0.7-1.6,2.2-2.5,4.2-2.5c3.6,0,5.6,2.7,5.6,7.3
			c0,4.6-2.1,7.3-5.6,7.3C48.3,104.5,46.7,103.6,46,102z M45.9,97.2c0,2.3,1.1,3.8,2.7,3.8c1.7,0,2.7-1.4,2.7-3.8
			c0-2.3-1-3.7-2.7-3.7C47,93.4,45.9,94.9,45.9,97.2z"/>
		<path class="st0" d="M58.1,97.2c0-4.6,2.8-7.4,7.2-7.4c4.5,0,7.2,2.8,7.2,7.4c0,4.7-2.7,7.4-7.2,7.4
			C60.8,104.6,58.1,101.8,58.1,97.2z M67.9,97.2c0-2.5-1-4-2.6-4s-2.6,1.5-2.6,4c0,2.5,0.9,4,2.6,4S67.9,99.7,67.9,97.2z"/>
		<path class="st0" d="M80.9,86.9v3.4h2.8v3.3h-2.8v5.7c0,1.1,0.5,1.6,1.7,1.6c0.5,0,0.8,0,1.1-0.1v3.2c-0.5,0.1-1.3,0.2-2.1,0.2
			c-3.7,0-5.2-1.1-5.2-3.9v-6.7h-2.2v-3.3h2.2v-3.4H80.9z"/>
		<path class="st0" d="M86.4,86.5c0-1.2,1-2,2.5-2c1.6,0,2.5,0.8,2.5,2c0,1.2-1,2-2.5,2C87.4,88.5,86.4,87.7,86.4,86.5z M86.7,90.1
			h4.5v14.1h-4.5V90.1z"/>
		<path class="st0" d="M103.6,95.3c-0.2-1.3-1-2.1-2.4-2.1c-1.8,0-2.6,1.3-2.6,3.9c0,2.6,0.9,4,2.6,4c1.3,0,2.2-0.7,2.4-2h4.1
			c-0.3,3.4-2.7,5.5-6.5,5.5c-4.7,0-7.2-2.6-7.2-7.4c0-4.8,2.5-7.4,7.2-7.4c3.9,0,6.2,2.1,6.5,5.6H103.6z"/>
		<path class="st0" d="M116.3,89.8c3.9,0,6.1,1.5,6.2,4.4h-4.1c-0.1-0.8-0.9-1.3-2.1-1.3c-1.2,0-2,0.5-2,1.3c0,0.6,0.5,1,1.6,1.2
			l2.9,0.6c2.8,0.6,4,1.7,4,3.9c0,2.9-2.6,4.8-6.5,4.8c-4.1,0-6.4-1.5-6.6-4.4h4.3c0.2,0.9,1,1.3,2.4,1.3c1.2,0,2-0.5,2-1.3
			c0-0.6-0.4-0.9-1.6-1.2l-2.6-0.6c-2.8-0.6-4.2-2-4.2-4.2C110.1,91.5,112.5,89.8,116.3,89.8z"/>
		<path class="st0" d="M131.4,100.2c0-2.6,2-4.1,5.7-4.3l3.1-0.2v-1.1c0-1-0.7-1.5-2-1.5c-1.2,0-1.9,0.4-2.2,1.1h-4
			c0.2-2.7,2.7-4.4,6.5-4.4c3.9,0,6.1,1.8,6.1,4.8v9.6h-4.4v-1.8H140c-0.6,1.2-2.2,2-4,2C133.3,104.5,131.4,102.8,131.4,100.2z
			 M140.2,99.2v-0.9l-2.4,0.2c-1.3,0.1-2,0.6-2,1.5c0,0.9,0.8,1.5,1.9,1.5C139.1,101.3,140.2,100.4,140.2,99.2z"/>
		<path class="st0" d="M148,90.1h4.4v2.3h0.2c0.6-1.6,2.1-2.6,4.1-2.6c3.2,0,4.8,1.9,4.8,5.3v9.1h-4.5v-8.1c0-1.7-0.7-2.7-2.2-2.7
			c-1.5,0-2.3,1.1-2.3,2.7v8.1H148V90.1z"/>
		<path class="st0" d="M164.2,97.1c0-4.5,2.1-7.3,5.7-7.3c1.9,0,3.4,0.9,4.1,2.5h0.2v-7.6h4.5v19.4h-4.4V102h-0.2
			c-0.7,1.5-2.3,2.4-4.2,2.4C166.4,104.5,164.2,101.7,164.2,97.1z M168.9,97.2c0,2.4,1,3.8,2.7,3.8c1.7,0,2.7-1.4,2.7-3.8
			c0-2.3-1-3.8-2.7-3.8C169.9,93.4,168.9,94.8,168.9,97.2z"/>
		<path class="st0" d="M199.8,100.2h-6l-1.2,4H188l6.2-18.3h5.7l6.2,18.3h-5.1L199.8,100.2z M194.7,96.9h4.2l-2-6.8h-0.2L194.7,96.9
			z"/>
		<path class="st0" d="M221.4,104.2H217V102h-0.2c-0.7,1.7-1.9,2.6-4,2.6c-3,0-5-2-5-5.2v-9.2h4.5v8.1c0,1.7,0.9,2.6,2.3,2.6
			c1.5,0,2.4-1,2.4-2.7v-8.1h4.5V104.2z"/>
		<path class="st0" d="M230.5,86.9v3.4h2.8v3.3h-2.8v5.7c0,1.1,0.5,1.6,1.7,1.6c0.5,0,0.8,0,1.1-0.1v3.2c-0.5,0.1-1.3,0.2-2.1,0.2
			c-3.7,0-5.2-1.1-5.2-3.9v-6.7h-2.2v-3.3h2.2v-3.4H230.5z"/>
		<path class="st0" d="M235.6,97.2c0-4.6,2.8-7.4,7.2-7.4c4.5,0,7.2,2.8,7.2,7.4c0,4.7-2.7,7.4-7.2,7.4
			C238.3,104.6,235.6,101.8,235.6,97.2z M245.4,97.2c0-2.5-1-4-2.6-4s-2.6,1.5-2.6,4c0,2.5,0.9,4,2.6,4S245.4,99.7,245.4,97.2z"/>
		<path class="st0" d="M252.8,90.1h4.4v2.3h0.2c0.5-1.6,2-2.7,3.9-2.7c2,0,3.4,1,3.9,2.7h0.2c0.6-1.6,2.2-2.7,4.2-2.7
			c2.8,0,4.6,1.9,4.6,4.8v9.7h-4.5v-8.5c0-1.5-0.7-2.3-2-2.3c-1.3,0-2.1,0.9-2.1,2.3v8.5h-4.3v-8.6c0-1.4-0.7-2.2-2-2.2
			c-1.3,0-2.1,1-2.1,2.4v8.4h-4.5V90.1z"/>
		<path class="st0" d="M277,100.2c0-2.6,2-4.1,5.7-4.3l3.1-0.2v-1.1c0-1-0.7-1.5-2-1.5c-1.2,0-1.9,0.4-2.2,1.1h-4
			c0.2-2.7,2.7-4.4,6.5-4.4c3.9,0,6.1,1.8,6.1,4.8v9.6h-4.4v-1.8h-0.2c-0.6,1.2-2.2,2-4,2C278.9,104.5,277,102.8,277,100.2z
			 M285.8,99.2v-0.9l-2.4,0.2c-1.3,0.1-2,0.6-2,1.5c0,0.9,0.8,1.5,1.9,1.5C284.7,101.3,285.8,100.4,285.8,99.2z"/>
		<path class="st0" d="M299.2,86.9v3.4h2.8v3.3h-2.8v5.7c0,1.1,0.5,1.6,1.7,1.6c0.5,0,0.8,0,1.1-0.1v3.2c-0.5,0.1-1.3,0.2-2.1,0.2
			c-3.7,0-5.2-1.1-5.2-3.9v-6.7h-2.2v-3.3h2.2v-3.4H299.2z"/>
		<path class="st0" d="M304.8,86.5c0-1.2,1-2,2.5-2c1.6,0,2.5,0.8,2.5,2c0,1.2-1,2-2.5,2C305.7,88.5,304.8,87.7,304.8,86.5z
			 M305,90.1h4.5v14.1H305V90.1z"/>
		<path class="st0" d="M312.4,97.2c0-4.6,2.8-7.4,7.2-7.4c4.5,0,7.2,2.8,7.2,7.4c0,4.7-2.7,7.4-7.2,7.4
			C315,104.6,312.4,101.8,312.4,97.2z M322.2,97.2c0-2.5-1-4-2.6-4s-2.6,1.5-2.6,4c0,2.5,0.9,4,2.6,4S322.2,99.7,322.2,97.2z"/>
		<path class="st0" d="M329.6,90.1h4.4v2.3h0.2c0.6-1.6,2.1-2.6,4.1-2.6c3.2,0,4.8,1.9,4.8,5.3v9.1h-4.5v-8.1c0-1.7-0.7-2.7-2.2-2.7
			c-1.5,0-2.3,1.1-2.3,2.7v8.1h-4.5V90.1z"/>
	</g>
</g>
<g>
	<path class="st0" d="M16.4,10.8c4.1,0,6.9,2.2,6.9,5.4c0,2-1.2,3.8-4.4,6.7l-3,2.8V26h7.7v3.6H9.6v-3.1l5.8-5.5
		c2.7-2.5,3.4-3.4,3.4-4.5c0-1.3-1-2.3-2.5-2.3c-1.6,0-2.7,1.1-2.7,2.6V17H9.3v-0.1C9.3,13.2,12.2,10.8,16.4,10.8z"/>
	<path class="st0" d="M26.3,20.4c0-6.1,3-9.6,7.7-9.6c4.7,0,7.7,3.5,7.7,9.6c0,6-2.9,9.7-7.7,9.7C29.2,30.1,26.3,26.5,26.3,20.4z
		 M36.9,20.4c0-4-1.2-6-3-6c-1.8,0-3,2-3,6c0,4.1,1.2,6.1,3,6.1C35.7,26.5,36.9,24.4,36.9,20.4z"/>
	<path class="st0" d="M49,15.5h-0.2l-4.4,3v-4l4.7-3.2h4.7v18.3H49V15.5z"/>
	<path class="st0" d="M58.1,24.8h4.6c0.3,1,1.3,1.7,2.5,1.7c2.3,0,3.7-2.3,3.5-5.7c0,0-0.1,0-0.1,0s-0.1,0-0.1,0
		c-0.8,1.7-2.5,2.7-4.6,2.7c-3.5,0-6-2.6-6-6c0-3.9,3-6.6,7.3-6.6c2.6,0,4.7,1.1,6.1,3c1.2,1.7,1.9,3.9,1.9,6.6c0,6-3,9.7-8,9.7
		C61.5,30.1,58.6,27.9,58.1,24.8z M68.2,17.3c0-1.6-1.3-2.9-2.9-2.9s-2.9,1.3-2.9,2.9c0,1.6,1.2,2.8,2.9,2.8
		C66.9,20.1,68.2,18.9,68.2,17.3z"/>
</g>
<path d="M85.8,10.1h5.5v19.9h-5.5V10.1z M94.2,30.1V10.1h15.2V14h-9.7v4.1h8.9V22h-8.9v4.2h9.7v3.9H94.2z M112.5,30.1V10.1h15.2V14
	H118v4.1h8.9V22H118v4.2h9.7v3.9H112.5L112.5,30.1z M130.8,30.1V10.1H146V14h-9.7v4.1h8.9V22h-8.9v4.2h9.7v3.9H130.8z"/>
</svg>
